<?xml version="1.0" encoding="UTF-8" standalone="no"?>
<!-- Uploaded to: SVG Repo, www.svgrepo.com, Generator: SVG Repo Mixer Tools -->

<svg
   fill="#000000"
   height="800px"
   width="800px"
   version="1.1"
   id="Capa_1"
   viewBox="0 0 237.569 237.569"
   xml:space="preserve"
   sodipodi:docname="search_maps.svg"
   inkscape:version="1.2.2 (b0a8486541, 2022-12-01)"
   xmlns:inkscape="http://www.inkscape.org/namespaces/inkscape"
   xmlns:sodipodi="http://sodipodi.sourceforge.net/DTD/sodipodi-0.dtd"
   xmlns="http://www.w3.org/2000/svg"
   xmlns:svg="http://www.w3.org/2000/svg"><defs
   id="defs11" /><sodipodi:namedview
   id="namedview9"
   pagecolor="#ffffff"
   bordercolor="#000000"
   borderopacity="0.25"
   inkscape:showpageshadow="2"
   inkscape:pageopacity="0.0"
   inkscape:pagecheckerboard="0"
   inkscape:deskcolor="#d1d1d1"
   showgrid="false"
   inkscape:zoom="1.25125"
   inkscape:cx="400.3996"
   inkscape:cy="399.6004"
   inkscape:window-width="2560"
   inkscape:window-height="1378"
   inkscape:window-x="1920"
   inkscape:window-y="25"
   inkscape:window-maximized="1"
   inkscape:current-layer="Capa_1" />
<g
   id="g6">
	<path
   d="M234.362,24.818c-2.009-1.403-4.576-1.736-6.879-0.89l-71.607,26.306L84.272,23.927c-1.671-0.614-3.504-0.614-5.173,0   L4.914,51.183C1.962,52.268,0,55.079,0,58.223v148.379c0,2.451,1.198,4.748,3.207,6.15c1.276,0.891,2.778,1.35,4.293,1.35   c0.871,0,1.747-0.152,2.586-0.46l71.599-26.306l71.604,26.306c1.669,0.613,3.502,0.613,5.173,0l74.193-27.256   c2.952-1.084,4.914-3.895,4.914-7.04V30.968C237.569,28.516,236.372,26.22,234.362,24.818z M222.569,174.112l-66.693,24.5   l-71.604-26.306c-0.835-0.307-1.711-0.46-2.586-0.46c-0.876,0-1.752,0.153-2.587,0.46L15,195.857V63.458l66.686-24.5l71.604,26.306   c1.669,0.613,3.502,0.613,5.173,0l64.107-23.551V174.112z"
   id="path2" />
	<path
   d="M157.018,114.759c0-25.51-20.752-46.264-46.26-46.264c-25.51,0-46.264,20.754-46.264,46.264   c0,25.509,20.754,46.262,46.264,46.262c10.053,0,19.359-3.233,26.955-8.701l22.563,22.559c1.464,1.464,3.383,2.196,5.303,2.196   c1.919,0,3.839-0.732,5.304-2.197c2.929-2.929,2.928-7.678-0.001-10.606l-22.562-22.559   C153.785,134.116,157.018,124.811,157.018,114.759z M79.494,114.759c0-17.239,14.025-31.264,31.264-31.264   c17.237,0,31.26,14.025,31.26,31.264c0,17.238-14.023,31.262-31.26,31.262C93.519,146.02,79.494,131.996,79.494,114.759z"
   id="path4" />
</g>
<path
   style="fill:#ffffff;stroke-width:0.799201"
   d="m 403.1968,623.56705 -120.27972,-44.40459 -7.5924,-0.0705 -7.59241,-0.0705 -107.09291,39.47657 c -58.9011,21.71217 -107.722916,39.64626 -108.492927,39.8536 -1.331793,0.3586 -1.390214,-10.46067 -1.198801,-222.01381 l 0.201219,-222.39079 2.797203,-1.00084 c 1.538461,-0.55048 51.888116,-19.04888 111.888116,-41.10758 96.76211,-35.57409 109.36187,-40.01982 111.48851,-39.33782 2.44761,0.78494 200.06516,73.41714 226.17382,83.12776 13.82737,5.14282 14.66475,5.35028 21.57843,5.34603 l 7.1928,-0.005 107.09291,-39.46401 c 58.9011,-21.70482 107.72292,-39.63705 108.49293,-39.84902 1.3318,-0.36663 1.39021,10.45016 1.1988,222.01942 l -0.20122,222.40483 -111.48851,40.99374 c -61.31868,22.54657 -112.02797,40.97195 -112.68732,40.94531 -0.65934,-0.0266 -55.32467,-20.03051 -121.47852,-44.45303 z m 165.15322,-29.36504 c 5.0716,-2.2572 9.7743,-6.85117 12.33097,-12.04584 2.78271,-5.65395 2.79305,-16.53261 0.0212,-22.31601 -1.49384,-3.11687 -10.54537,-12.65601 -41.14269,-43.35905 l -39.2275,-39.36304 1.40356,-2.1954 c 12.94016,-20.24051 20.06509,-37.14553 24.142,-57.28066 10.46591,-51.68935 -5.6815,-105.0377 -42.88099,-141.67168 -9.96566,-9.81416 -14.60891,-13.59761 -25.22062,-20.5505 -27.86628,-18.25823 -63.54086,-27.37179 -96.34855,-24.61355 -18.8249,1.58267 -33.17919,5.0857 -50.06967,12.21905 -33.99196,14.3558 -62.48618,41.61683 -78.74917,75.34098 -10.77335,22.3405 -15.62552,43.47109 -15.62552,68.04728 0,54.5559 27.73505,104.16315 74.48335,133.22184 27.89971,17.34242 63.57895,25.5312 96.66074,22.18467 24.08206,-2.43612 49.22829,-11.09293 68.26222,-23.49987 3.7414,-2.43876 7.0518,-4.43412 7.35648,-4.43412 0.30466,0 18.54404,17.93883 40.53194,39.86405 36.71891,36.61425 40.30376,39.96604 43.974,41.11515 7.87005,2.46402 13.48823,2.27859 20.09827,-0.6633 z"
   id="path2839"
   transform="scale(0.29696125)" /><path
   style="fill:#ffffff;stroke-width:0.799201"
   d="m 360.84031,490.66364 c -44.96857,-5.62502 -81.10715,-39.00865 -90.79174,-83.87043 -2.05799,-9.53318 -2.05799,-31.22607 0,-40.75924 9.17874,-42.51853 41.9496,-74.64995 84.39698,-82.75019 9.97482,-1.90349 27.32741,-1.93503 36.97895,-0.0672 21.11791,4.08686 38.8116,13.29912 54.19188,28.21512 21.14284,20.50461 31.89839,45.92031 31.90033,75.38149 3.6e-4,5.4945 -0.55943,13.22677 -1.24399,17.18281 -7.34356,42.43839 -40.41628,76.50488 -82.62347,85.10615 -9.33049,1.90144 -24.36931,2.61719 -32.80894,1.56149 z"
   id="path2841"
   transform="scale(0.29696125)" /></svg>
